<?xml version="1.0" standalone="no"?>
<!DOCTYPE svg PUBLIC "-//W3C//DTD SVG 20010904//EN"
 "http://www.w3.org/TR/2001/REC-SVG-20010904/DTD/svg10.dtd">
<svg version="1.0" xmlns="http://www.w3.org/2000/svg"
 width="512.000000pt" height="512.000000pt" viewBox="0 0 512.000000 512.000000"
 preserveAspectRatio="xMidYMid meet">
<metadata>
Created by potrace 1.14, written by Peter Selinger 2001-2017
</metadata>
<g transform="translate(0.000000,512.000000) scale(0.100000,-0.100000)"
fill="#000000" stroke="none">
<path d="M2375 5112 c-30 -3 -171 -27 -213 -36 -516 -111 -998 -491 -1230
-969 -80 -163 -141 -368 -167 -557 -19 -136 -11 -387 19 -573 33 -208 159
-518 285 -702 169 -246 380 -435 636 -570 50 -26 89 -53 87 -59 -3 -10 -82
-146 -142 -246 -15 -25 -39 -65 -53 -90 -13 -25 -71 -126 -129 -225 -57 -99
-157 -272 -222 -385 -66 -113 -165 -284 -221 -380 -56 -96 -121 -208 -143
-248 l-41 -72 1720 0 1721 0 -22 38 c-21 33 -107 182 -150 257 -10 17 -66 113
-125 215 -59 102 -119 205 -133 229 -14 25 -38 68 -55 95 -16 28 -37 65 -47
81 -14 25 -414 717 -426 736 -2 4 22 19 54 35 237 115 473 313 626 525 25 35
50 69 55 75 24 29 114 198 150 280 34 78 86 229 96 274 2 8 8 33 13 55 53 202
62 538 21 750 -5 28 -11 59 -13 70 -46 240 -207 566 -376 756 -330 374 -715
579 -1195 638 -67 8 -316 10 -380 3z"/>
</g>
</svg>
