<svg xmlns="http://www.w3.org/2000/svg" width="114" height="43" viewBox="0 0 114 43"><g transform="translate(-96 -8553)"><g transform="translate(96 8553)"><g transform="translate(44.572 27.934)"><path d="M234.048,470.88h4.875v1.993h-4.875Zm-1.181-1.152V474.5h1.181v-.484h4.875v.484h1.213v-4.769Z" transform="translate(-218.436 -463.764)" fill="#efefe6"/><path d="M233.046,452.854v1.665h-4.471v1.163h4.471v1.245h-3.722v1.163h8.821v-1.163h-3.886v-1.245h4.581v-1.163h-4.581v-1.665Z" transform="translate(-215.641 -452.854)" fill="#efefe6"/><path d="M196.408,452.854V454.8H191.97v1.211h4.437v1.571h-3.859v1.2h3.131a10.783,10.783,0,0,1-3.841,3.092l-.336.149.277.245a3.07,3.07,0,0,1,.488.585l.112.186.192-.1a12.428,12.428,0,0,0,3.837-3.2v3.839h1.229v-3.935a12.659,12.659,0,0,0,3.892,3.259l.184.094.114-.174a3.71,3.71,0,0,1,.5-.6l.277-.245-.338-.149a10.988,10.988,0,0,1-3.863-3.047h3.164v-1.2h-3.935v-1.571h4.523V454.8h-4.523v-1.946Z" transform="translate(-191.502 -452.854)" fill="#efefe6"/></g><path d="M152.888,392.065v6.5a.509.509,0,0,1-.506.512H110.228a5.034,5.034,0,0,1-3.985-1.969L95.6,383.306a5.034,5.034,0,0,0-3.985-1.969H71.679a.509.509,0,0,0-.506.512v4.532A5.09,5.09,0,0,0,76.23,391.5H92.648a5.09,5.09,0,0,1,5.057,5.122v20.187H64.251a.509.509,0,0,1-.506-.512V404.427a.509.509,0,0,1,.506-.512h6.417a.509.509,0,0,1,.506.512h0a4.833,4.833,0,0,0,4.8,4.864h13.8a.509.509,0,0,0,.506-.512v-9.238a.509.509,0,0,0-.506-.512H64.251a.509.509,0,0,1-.506-.512v-24.7H95.238a5.033,5.033,0,0,1,3.985,1.969l10.644,13.8a5.033,5.033,0,0,0,3.985,1.969h38.531A.509.509,0,0,1,152.888,392.065Z" transform="translate(-63.745 -373.813)" fill="#efefe6"/><path d="M288.726,452.854v10.732H286V462.5H275.023v1.09h-2.658V452.854Z" transform="translate(-199.582 -424.92)" fill="#efefe6"/></g><path d="M360.559,444.935c-1.381-2.422-4.288-7.526-5.643-9.9a5.854,5.854,0,0,0,1.625-9.336,5.591,5.591,0,0,0-8.01,0,5.854,5.854,0,0,0,1.625,9.336c-1.366,2.394-4.249,7.456-5.643,9.9Z" transform="translate(-150.559 8146.73)" fill="#efefe6"/></g></svg>