<svg xmlns="http://www.w3.org/2000/svg" width="67.157" height="32" viewBox="0 0 67.157 32"><path d="M119.3,92.955h3.673v1.482H119.3Zm-.889-.857v3.548h.889v-.36h3.673v.36h.914V92.1Z" transform="translate(-73.964 -66.872)" fill="#1c1c1c"/><path d="M120.419,86.738v1.239h-3.368v.865h3.368v.927h-2.8v.865h6.645v-.865h-2.927v-.927h3.451v-.865h-3.451V86.738Z" transform="translate(-73.729 -65.951)" fill="#1c1c1c"/><path d="M108.972,86.738v1.448h-3.342v.9h3.342v1.168h-2.907v.894h2.358a8.1,8.1,0,0,1-2.894,2.3l-.253.111.209.182a2.3,2.3,0,0,1,.368.436l.084.138.144-.073a9.333,9.333,0,0,0,2.891-2.378v2.857h.926V91.8a9.494,9.494,0,0,0,2.933,2.425l.138.07.086-.13a2.8,2.8,0,0,1,.381-.45l.209-.182-.255-.112a8.254,8.254,0,0,1-2.91-2.267h2.384v-.894H109.9V89.088h3.408v-.9H109.9V86.738Z" transform="translate(-71.698 -65.951)" fill="#1c1c1c"/><path d="M131.856,75.217v4.836a.381.381,0,0,1-.381.381H99.718a3.809,3.809,0,0,1-3-1.465L88.7,68.7a3.809,3.809,0,0,0-3-1.465H70.676a.381.381,0,0,0-.381.381v3.373A3.811,3.811,0,0,0,74.1,74.8H86.473a3.81,3.81,0,0,1,3.809,3.812V93.634H65.08a.381.381,0,0,1-.381-.382V84.416a.382.382,0,0,1,.381-.382h4.834a.382.382,0,0,1,.381.382h0a3.618,3.618,0,0,0,3.617,3.619h10.4a.381.381,0,0,0,.381-.381V80.779a.381.381,0,0,0-.381-.381H65.08a.381.381,0,0,1-.381-.381V61.634H88.425a3.809,3.809,0,0,1,3,1.465L99.446,73.37a3.807,3.807,0,0,0,3,1.466h29.028A.381.381,0,0,1,131.856,75.217Z" transform="translate(-64.699 -61.634)" fill="#1c1c1c"/><path d="M143.285,86.738v7.987h-2.056v-.811h-8.267v.811h-2V86.738Z" transform="translate(-76.128 -65.951)" fill="#1c1c1c"/></svg>