<svg xmlns="http://www.w3.org/2000/svg" width="270.4" height="32" viewBox="0 0 270.4 32"><path d="M119.3,92.955h3.673v1.482H119.3Zm-.889-.857v3.548h.889v-.36h3.673v.36h.914V92.1Z" transform="translate(-73.964 -66.872)" fill="#1c1c1c"/><path d="M120.419,86.738v1.239h-3.368v.865h3.368v.927h-2.8v.865h6.645v-.865h-2.927v-.927h3.451v-.865h-3.451V86.738Z" transform="translate(-73.729 -65.951)" fill="#1c1c1c"/><path d="M108.972,86.738v1.448h-3.342v.9h3.342v1.168h-2.907v.894h2.358a8.1,8.1,0,0,1-2.894,2.3l-.253.111.209.182a2.3,2.3,0,0,1,.368.436l.084.138.144-.073a9.333,9.333,0,0,0,2.891-2.378v2.857h.926V91.8a9.494,9.494,0,0,0,2.933,2.425l.138.07.086-.13a2.8,2.8,0,0,1,.381-.45l.209-.182-.255-.112a8.254,8.254,0,0,1-2.91-2.267h2.384v-.894H109.9V89.088h3.408v-.9H109.9V86.738Z" transform="translate(-71.698 -65.951)" fill="#1c1c1c"/><path d="M165.177,90.9V66.684h6.535V85.6h17.667V90.9Z" transform="translate(-82.03 -62.502)" fill="#1c1c1c"/><path d="M224.853,86.16a8.252,8.252,0,0,1-2.7,2.8,14.673,14.673,0,0,1-4.483,1.895,28.735,28.735,0,0,1-12.576,0,14.649,14.649,0,0,1-4.5-1.895,8.234,8.234,0,0,1-2.694-2.8,6.876,6.876,0,0,1-.9-3.419V66.684h6.518V80.4a8.355,8.355,0,0,0,.309,2.3,4.134,4.134,0,0,0,1.163,1.895,6,6,0,0,0,2.395,1.287,13.914,13.914,0,0,0,4.007.476,13.756,13.756,0,0,0,3.982-.476,6,6,0,0,0,2.387-1.287,4.079,4.079,0,0,0,1.153-1.895,8.581,8.581,0,0,0,.3-2.3V66.684h6.535V82.741A6.892,6.892,0,0,1,224.853,86.16Z" transform="translate(-87.52 -62.502)" fill="#1c1c1c"/><path d="M259.59,72.812q-.7-.343-1.859-.776t-2.615-.821a30.307,30.307,0,0,0-3.175-.651,23.483,23.483,0,0,0-3.519-.262q-1.442,0-2.462.09a15.485,15.485,0,0,0-1.714.235,5.162,5.162,0,0,0-1.1.335,2.456,2.456,0,0,0-.622.388.947.947,0,0,0-.28.4,1.194,1.194,0,0,0-.063.361,1.173,1.173,0,0,0,.541.948,5.307,5.307,0,0,0,1.48.721,21.739,21.739,0,0,0,2.183.6q1.244.279,2.642.577t2.886.65q1.488.353,2.886.821a20.458,20.458,0,0,1,2.642,1.092,10.031,10.031,0,0,1,2.184,1.453,6.32,6.32,0,0,1,1.479,1.913,5.466,5.466,0,0,1,.541,2.473,6.9,6.9,0,0,1-.631,3.069,6.594,6.594,0,0,1-1.687,2.166,8.483,8.483,0,0,1-2.444,1.418,16.845,16.845,0,0,1-2.914.821,24.283,24.283,0,0,1-3.084.379q-1.562.089-2.968.09a35.914,35.914,0,0,1-6.81-.605,34.1,34.1,0,0,1-5.529-1.507V83.265a22.69,22.69,0,0,0,5.638,2.147,28.33,28.33,0,0,0,6.774.777,21.571,21.571,0,0,0,3.472-.226,8.439,8.439,0,0,0,2.1-.577,2.409,2.409,0,0,0,1.029-.768,1.466,1.466,0,0,0,.27-.794,1.307,1.307,0,0,0-.541-1.038,5,5,0,0,0-1.479-.777,19.3,19.3,0,0,0-2.183-.614q-1.245-.279-2.642-.559t-2.878-.605q-1.478-.325-2.878-.768a21.263,21.263,0,0,1-2.642-1.028,9.678,9.678,0,0,1-2.183-1.39,6.082,6.082,0,0,1-1.479-1.86,5.288,5.288,0,0,1-.541-2.445,6.433,6.433,0,0,1,.578-2.834,6.163,6.163,0,0,1,1.56-2.031,8.251,8.251,0,0,1,2.273-1.362,15.191,15.191,0,0,1,2.715-.812,23.312,23.312,0,0,1,2.886-.4q1.461-.108,2.778-.108,1.442,0,2.968.144t3,.407q1.478.262,2.859.6t2.553.723Z" transform="translate(-94.145 -62.246)" fill="#1c1c1c"/><path d="M298.636,86.16a8.252,8.252,0,0,1-2.7,2.8,14.673,14.673,0,0,1-4.483,1.895,28.739,28.739,0,0,1-12.577,0,14.644,14.644,0,0,1-4.5-1.895,8.245,8.245,0,0,1-2.7-2.8,6.884,6.884,0,0,1-.9-3.419V66.684h6.518V80.4a8.354,8.354,0,0,0,.309,2.3,4.133,4.133,0,0,0,1.163,1.895,5.985,5.985,0,0,0,2.395,1.287,13.913,13.913,0,0,0,4.007.476,13.754,13.754,0,0,0,3.981-.476,6,6,0,0,0,2.387-1.287A4.074,4.074,0,0,0,292.7,82.7a8.614,8.614,0,0,0,.3-2.3V66.684h6.535V82.741A6.892,6.892,0,0,1,298.636,86.16Z" transform="translate(-100.246 -62.502)" fill="#1c1c1c"/><path d="M347.821,90.9V66.684h24.5v5.165h-17.79v4h16.873v5.165H354.532v4.724h18.036V90.9Z" transform="translate(-113.533 -62.502)" fill="#1c1c1c"/><path d="M332.21,90.9a8.986,8.986,0,0,0-2.9-6.028,10.76,10.76,0,0,0-2.642-1.779,17.266,17.266,0,0,0-3.021-1.12,20.421,20.421,0,0,0-3.091-.581,26.593,26.593,0,0,0-2.862-.168h-1.938V90.9h-6.535V66.684h6.535v9.341H317.1a20.086,20.086,0,0,0,2.836-.211,18.458,18.458,0,0,0,2.933-.67,16.048,16.048,0,0,0,2.792-1.181,10.55,10.55,0,0,0,2.4-1.763,9.382,9.382,0,0,0,1.761-2.405,8.609,8.609,0,0,0,.881-3.111h6.658a13.127,13.127,0,0,1-.766,3.472,12.329,12.329,0,0,1-1.462,2.776,11.719,11.719,0,0,1-1.946,2.142,15.423,15.423,0,0,1-4.448,2.67,16.22,16.22,0,0,1-2.087.662,18.118,18.118,0,0,1,2.563.608,15.934,15.934,0,0,1,2.633,1.093,14.094,14.094,0,0,1,2.493,1.665,12.357,12.357,0,0,1,2.14,2.309,12.829,12.829,0,0,1,1.585,3.013,14.181,14.181,0,0,1,.81,3.807Z" transform="translate(-106.875 -62.502)" fill="#1c1c1c"/><path d="M131.856,75.217v4.836a.381.381,0,0,1-.381.381H99.718a3.809,3.809,0,0,1-3-1.465L88.7,68.7a3.809,3.809,0,0,0-3-1.465H70.676a.381.381,0,0,0-.381.381v3.373A3.811,3.811,0,0,0,74.1,74.8H86.473a3.81,3.81,0,0,1,3.809,3.812V93.634H65.08a.381.381,0,0,1-.381-.382V84.416a.382.382,0,0,1,.381-.382h4.834a.382.382,0,0,1,.381.382h0a3.618,3.618,0,0,0,3.617,3.619h10.4a.381.381,0,0,0,.381-.381V80.779a.381.381,0,0,0-.381-.381H65.08a.381.381,0,0,1-.381-.381V61.634H88.425a3.809,3.809,0,0,1,3,1.465L99.446,73.37a3.807,3.807,0,0,0,3,1.466h29.028A.381.381,0,0,1,131.856,75.217Z" transform="translate(-64.699 -61.634)" fill="#1c1c1c"/><path d="M143.285,86.738v7.987h-2.056v-.811h-8.267v.811h-2V86.738Z" transform="translate(-76.128 -65.951)" fill="#1c1c1c"/><path d="M390.424,94.6l-1.747-3.028a1.779,1.779,0,0,0,.5-2.855,1.745,1.745,0,0,0-2.479,0,1.779,1.779,0,0,0,.5,2.855c-.423.733-1.315,2.28-1.747,3.028Z" transform="translate(-120.024 -66.202)" fill="#1c1c1c"/></svg>